<svg xmlns="http://www.w3.org/2000/svg" viewBox="0 0 30 17">
  <rect width="30" height="17" fill="#00008B"/>
  <g fill="#FFF">
    <polygon points="0,0 6,3 0,6" />
    <polygon points="0,0 3,0 7.5,3.5 7.5,0 9,0 9,5 6,3" />
    <polygon points="30,0 24,3 30,6" transform="translate(-21,0)"/>
    <rect x="3.5" y="0" width="2" height="6"/>
    <rect x="0" y="2.25" width="9" height="1.5"/>
  </g>
  <g fill="#C8102E">
    <rect x="4" y="0" width="1" height="6"/>
    <rect x="0" y="2.5" width="9" height="1"/>
  </g>
  <g fill="#FFF">
    <polygon points="15,10 15.5,11.5 17,11.5 15.8,12.3 16.3,14 15,13 13.7,14 14.2,12.3 13,11.5 14.5,11.5"/>
    <polygon points="22,4 22.3,5 23.5,5 22.5,5.6 22.8,6.5 22,5.9 21.2,6.5 21.5,5.6 20.5,5 21.7,5" transform="scale(0.7)"/>
    <polygon points="26,8 26.3,9 27.5,9 26.5,9.6 26.8,10.5 26,9.9 25.2,10.5 25.5,9.6 24.5,9 25.7,9" transform="scale(0.7)"/>
    <polygon points="26,14 26.3,15 27.5,15 26.5,15.6 26.8,16.5 26,15.9 25.2,16.5 25.5,15.6 24.5,15 25.7,15" transform="scale(0.7)"/>
    <polygon points="22,18 22.3,19 23.5,19 22.5,19.6 22.8,20.5 22,19.9 21.2,20.5 21.5,19.6 20.5,19 21.7,19" transform="scale(0.7)"/>
  </g>
</svg>
