<svg xmlns="http://www.w3.org/2000/svg" viewBox="0 0 30 17">
  <rect width="30" height="17" fill="#003399"/>
  <g fill="#FFCC00">
    <polygon points="15,2 15.3,2.9 16.2,2.9 15.5,3.5 15.7,4.4 15,3.9 14.3,4.4 14.5,3.5 13.8,2.9 14.7,2.9"/>
    <polygon points="18.5,3 18.8,3.9 19.7,3.9 19,4.5 19.2,5.4 18.5,4.9 17.8,5.4 18,4.5 17.3,3.9 18.2,3.9"/>
    <polygon points="21,5.5 21.3,6.4 22.2,6.4 21.5,7 21.7,7.9 21,7.4 20.3,7.9 20.5,7 19.8,6.4 20.7,6.4"/>
    <polygon points="22,9 22.3,9.9 23.2,9.9 22.5,10.5 22.7,11.4 22,10.9 21.3,11.4 21.5,10.5 20.8,9.9 21.7,9.9"/>
    <polygon points="21,12.5 21.3,13.4 22.2,13.4 21.5,14 21.7,14.9 21,14.4 20.3,14.9 20.5,14 19.8,13.4 20.7,13.4"/>
    <polygon points="18.5,14 18.8,14.9 19.7,14.9 19,15.5 19.2,16.4 18.5,15.9 17.8,16.4 18,15.5 17.3,14.9 18.2,14.9" transform="translate(0,-1)"/>
    <polygon points="15,15 15.3,15.9 16.2,15.9 15.5,16.5 15.7,17.4 15,16.9 14.3,17.4 14.5,16.5 13.8,15.9 14.7,15.9" transform="translate(0,-2)"/>
    <polygon points="11.5,14 11.8,14.9 12.7,14.9 12,15.5 12.2,16.4 11.5,15.9 10.8,16.4 11,15.5 10.3,14.9 11.2,14.9" transform="translate(0,-1)"/>
    <polygon points="9,12.5 9.3,13.4 10.2,13.4 9.5,14 9.7,14.9 9,14.4 8.3,14.9 8.5,14 7.8,13.4 8.7,13.4"/>
    <polygon points="8,9 8.3,9.9 9.2,9.9 8.5,10.5 8.7,11.4 8,10.9 7.3,11.4 7.5,10.5 6.8,9.9 7.7,9.9"/>
    <polygon points="9,5.5 9.3,6.4 10.2,6.4 9.5,7 9.7,7.9 9,7.4 8.3,7.9 8.5,7 7.8,6.4 8.7,6.4"/>
    <polygon points="11.5,3 11.8,3.9 12.7,3.9 12,4.5 12.2,5.4 11.5,4.9 10.8,5.4 11,4.5 10.3,3.9 11.2,3.9"/>
  </g>
</svg>
