<svg xmlns="http://www.w3.org/2000/svg" viewBox="0 0 30 17">
  <rect width="30" height="17" fill="#00247D"/>
  <g fill="#FFF">
    <polygon points="0,0 6,3 0,6" />
    <rect x="3.5" y="0" width="2" height="6"/>
    <rect x="0" y="2.25" width="9" height="1.5"/>
  </g>
  <g fill="#CC142B">
    <rect x="4" y="0" width="1" height="6"/>
    <rect x="0" y="2.5" width="9" height="1"/>
  </g>
  <g fill="#CC142B" stroke="#FFF" stroke-width="0.3">
    <polygon points="20,4 20.4,5.2 21.6,5.2 20.6,5.9 21,7 20,6.3 19,7 19.4,5.9 18.4,5.2 19.6,5.2"/>
    <polygon points="25,6 25.3,6.9 26.2,6.9 25.5,7.4 25.7,8.3 25,7.8 24.3,8.3 24.5,7.4 23.8,6.9 24.7,6.9"/>
    <polygon points="25,11 25.3,11.9 26.2,11.9 25.5,12.4 25.7,13.3 25,12.8 24.3,13.3 24.5,12.4 23.8,11.9 24.7,11.9"/>
    <polygon points="22,14 22.3,14.7 23,14.7 22.4,15.1 22.6,15.8 22,15.4 21.4,15.8 21.6,15.1 21,14.7 21.7,14.7"/>
  </g>
</svg>
