<svg xmlns="http://www.w3.org/2000/svg" viewBox="0 0 30 17">
  <rect width="30" height="17" fill="#FFF"/>
  <g fill="#B22234">
    <rect y="0" width="30" height="1.3"/>
    <rect y="2.6" width="30" height="1.3"/>
    <rect y="5.2" width="30" height="1.3"/>
    <rect y="7.8" width="30" height="1.3"/>
    <rect y="10.4" width="30" height="1.3"/>
    <rect y="13" width="30" height="1.3"/>
    <rect y="15.6" width="30" height="1.4"/>
  </g>
  <rect width="12" height="9.1" fill="#3C3B6E"/>
  <g fill="#FFF">
    <circle cx="1.5" cy="1" r="0.4"/>
    <circle cx="3.5" cy="1" r="0.4"/>
    <circle cx="5.5" cy="1" r="0.4"/>
    <circle cx="7.5" cy="1" r="0.4"/>
    <circle cx="9.5" cy="1" r="0.4"/>
    <circle cx="2.5" cy="2" r="0.4"/>
    <circle cx="4.5" cy="2" r="0.4"/>
    <circle cx="6.5" cy="2" r="0.4"/>
    <circle cx="8.5" cy="2" r="0.4"/>
    <circle cx="1.5" cy="3" r="0.4"/>
    <circle cx="3.5" cy="3" r="0.4"/>
    <circle cx="5.5" cy="3" r="0.4"/>
    <circle cx="7.5" cy="3" r="0.4"/>
    <circle cx="9.5" cy="3" r="0.4"/>
    <circle cx="2.5" cy="4" r="0.4"/>
    <circle cx="4.5" cy="4" r="0.4"/>
    <circle cx="6.5" cy="4" r="0.4"/>
    <circle cx="8.5" cy="4" r="0.4"/>
    <circle cx="1.5" cy="5" r="0.4"/>
    <circle cx="3.5" cy="5" r="0.4"/>
    <circle cx="5.5" cy="5" r="0.4"/>
    <circle cx="7.5" cy="5" r="0.4"/>
    <circle cx="9.5" cy="5" r="0.4"/>
    <circle cx="2.5" cy="6" r="0.4"/>
    <circle cx="4.5" cy="6" r="0.4"/>
    <circle cx="6.5" cy="6" r="0.4"/>
    <circle cx="8.5" cy="6" r="0.4"/>
    <circle cx="1.5" cy="7" r="0.4"/>
    <circle cx="3.5" cy="7" r="0.4"/>
    <circle cx="5.5" cy="7" r="0.4"/>
    <circle cx="7.5" cy="7" r="0.4"/>
    <circle cx="9.5" cy="7" r="0.4"/>
    <circle cx="2.5" cy="8" r="0.4"/>
    <circle cx="4.5" cy="8" r="0.4"/>
    <circle cx="6.5" cy="8" r="0.4"/>
    <circle cx="8.5" cy="8" r="0.4"/>
  </g>
</svg>
